<svg width="175" height="258" viewBox="0 0 175 258" fill="none" xmlns="http://www.w3.org/2000/svg">
<path d="M130.035 178.085C122.518 178.897 114.92 177.686 108.027 174.577C101.315 171.548 95.1642 166.918 87.5632 166.719C73.8581 166.368 61.0183 173.174 47.8042 175.793C39.2561 177.489 31.2224 177.313 23.7734 174.624C32.1111 188.516 40.94 202.128 49.839 215.646C57.8609 227.831 66.9938 239.302 75.8694 250.914C81.1433 257.814 88.7326 259.463 94.7199 254.925C97.5147 252.797 99.4909 249.57 101.736 246.74C119.593 224.042 136.689 200.841 150.991 175.863C143.565 175.442 133.894 177.746 130.035 178.085Z" fill="#003459"/>
<path d="M107.993 132.713C106.344 123.732 103.058 114.003 96.5561 107.618C97.7734 107.35 98.9521 106.93 100.064 106.367C102.293 105.064 103.96 102.981 104.742 100.52C103.175 101.841 100.509 102.859 96.5561 102.204C103.034 102.321 101.97 99.3156 105.011 98.2164C105.017 98.1307 105.017 98.0448 105.011 97.9592C104.973 97.3342 104.814 96.7226 104.543 96.1583C103.923 98.2047 101.491 96.9184 100.953 96.4156C101.128 96.0881 102.345 94.5329 103.151 94.7317C102.298 94.4681 101.432 94.2495 100.555 94.0768C98.9416 93.5038 97.9827 91.89 96.6029 90.8843C94.0068 88.9666 90.3934 89.5045 87.2478 90.3582C86.2661 90.6178 85.3015 90.938 84.3594 91.317C81.7985 88.2532 80.1146 85.7157 77.7992 83.3769C70.6309 76.1151 65.3453 84.6867 71.4377 90.4985C72.3148 91.3288 73.0398 92.2175 75.5072 94.7784C74.2939 93.4863 72.997 92.2754 71.6249 91.1533C62.2113 83.4822 55.2535 93.0477 64.6086 99.5144C65.9767 100.462 71.1571 104.344 72.0224 105.022C66.0841 111.424 61.8991 119.25 59.8726 127.743V127.837C60.8695 128.869 61.9887 129.777 63.2053 130.538C64.7193 131.417 66.3177 132.142 67.9764 132.701C69.7188 133.345 71.4845 134.046 73.2152 134.654C74.9318 135.213 76.6766 135.682 78.4424 136.058C80.2589 136.568 82.1181 136.912 83.9969 137.087C85.8832 137.102 87.7688 137.012 89.645 136.818C93.2611 136.746 96.8676 136.422 100.438 135.847C103.147 135.394 105.734 134.391 108.039 132.9C108.015 132.84 107.999 132.777 107.993 132.713ZM90.8144 93.2699C90.8681 93.2061 90.9312 93.1509 91.0015 93.1062C91.2199 92.9508 91.482 92.8689 91.7499 92.8723C91.9307 92.871 92.1098 92.9069 92.2761 92.9776C92.4373 93.0473 92.584 93.1465 92.7088 93.2699C92.7664 93.3263 92.8174 93.3891 92.8608 93.457C92.9106 93.531 92.9536 93.6093 92.9895 93.6909C93.0631 93.8522 93.0991 94.0281 93.0947 94.2054C93.096 94.3862 93.0602 94.5653 92.9895 94.7317C92.9181 94.8856 92.8235 95.0276 92.7088 95.1526C92.4506 95.3996 92.1072 95.5378 91.7499 95.5385C91.3984 95.5354 91.0623 95.3936 90.8148 95.1439C90.5674 94.8942 90.4285 94.557 90.4285 94.2054C90.4276 94.0317 90.4612 93.8595 90.5275 93.6989C90.5937 93.5383 90.6913 93.3925 90.8144 93.2699ZM74.9927 91.8784C74.6068 91.434 74.256 91.013 73.9402 90.6037C73.7765 90.4049 73.6362 90.2061 73.4959 90.019C73.3738 89.8617 73.2605 89.6978 73.1567 89.5279C73.0515 89.3759 72.9579 89.2121 72.8644 89.0601C72.7736 88.9171 72.6917 88.7687 72.6188 88.6157C72.5393 88.4803 72.469 88.3397 72.4083 88.1948C72.2441 87.8217 72.13 87.4285 72.0692 87.0254C72.0047 86.5932 72.0514 86.1516 72.2049 85.7425C72.3583 85.3333 72.6135 84.9699 72.9463 84.6866C73.0971 84.532 73.2799 84.4121 73.4819 84.3353C73.6839 84.2586 73.9001 84.2268 74.1156 84.2423C74.2245 84.2307 74.3342 84.2307 74.4431 84.2423H74.5483L74.8874 84.3358C75.0201 84.3804 75.1491 84.4352 75.2733 84.4996C75.3625 84.5353 75.4485 84.5783 75.5306 84.6282L75.7879 84.7685C75.9633 84.8737 76.1504 84.9907 76.3258 85.1193L76.6064 85.3298C76.7935 85.4701 76.9806 85.6221 77.1677 85.7858C77.4601 86.0314 77.7524 86.3004 78.0448 86.581L78.3371 86.8734C78.5476 87.0839 78.7464 87.2827 78.9452 87.5049L79.4948 88.1129C80.1146 88.7911 80.7226 89.5279 81.3073 90.2763L81.8803 91.0013L82.4533 91.738L83.0029 92.4748C81.6864 93.6712 80.5095 95.0128 79.4948 96.474C78.5827 95.5619 77.7407 94.7316 76.9923 93.9481L75.6007 92.463L74.9927 91.8784ZM64.8775 92.9776C66.4679 91.2469 69.4498 92.4396 76.6415 99.6781C75.4092 101.081 74.2574 102.553 73.1918 104.087C64.1876 97.199 62.644 95.4216 64.9009 92.9776H64.8775Z" fill="#797979"/>
<path d="M105.057 98.2398C105.075 98.5085 105.075 98.778 105.057 99.0467C105.012 99.5544 104.914 100.056 104.765 100.543C103.198 101.865 100.532 102.882 96.5791 102.227C103.081 102.344 102.017 99.339 105.057 98.2398Z" fill="#FF6B35"/>
<path d="M104.578 96.17C103.958 98.2164 101.105 96.9769 100.567 96.4741C100.742 96.1466 102.321 94.1353 103.186 94.7434L103.326 94.8252C103.881 95.1226 104.321 95.5956 104.578 96.17Z" fill="#FF6B35"/>
<path d="M93.0949 94.2054C93.0949 94.3815 93.06 94.5558 92.9923 94.7183C92.9246 94.8808 92.8254 95.0282 92.7003 95.1522C92.5753 95.2761 92.4269 95.3741 92.2639 95.4404C92.1008 95.5067 91.9262 95.5401 91.7501 95.5385C91.3986 95.5354 91.0625 95.3936 90.815 95.1439C90.5675 94.8942 90.4287 94.557 90.4287 94.2054C90.4287 93.8539 90.5675 93.5165 90.815 93.2669C91.0625 93.0172 91.3986 92.8754 91.7501 92.8723C91.9262 92.8708 92.1008 92.9041 92.2639 92.9704C92.4269 93.0367 92.5753 93.1346 92.7003 93.2586C92.8254 93.3825 92.9246 93.53 92.9923 93.6925C93.06 93.855 93.0949 94.0294 93.0949 94.2054Z" fill="#FF6B35"/>
<path d="M83.611 92.3812C82.2944 93.5776 80.4625 95.118 79.4478 96.5792C72.911 90.1009 70.502 87.0254 72.8876 84.7218C75.2731 82.4181 80.1964 87.7855 83.611 92.3812Z" fill="#FF6B35"/>
<path d="M77.1793 99.3975C75.9469 100.801 74.1517 103.126 73.0861 104.66C64.0819 97.772 62.6203 95.4216 64.8304 92.9776C66.4676 91.2469 70.0344 92.159 77.1793 99.3975Z" fill="#FF6B35"/>
<path d="M173.396 94.2171C165.608 59.0421 139.917 33.2689 103.584 25.9252C108.893 34.8826 115.278 45.22 115.278 45.22C115.278 45.22 104.227 56.9138 101.093 60.3401C116.47 66.187 127.79 81.1551 127.778 98.2398C127.778 111.992 120.259 124.528 109.232 131.871C109.203 131.968 109.146 132.053 109.068 132.117C106.262 134.362 79.3777 141.986 58.8901 127.007C58.8208 126.946 58.7752 126.863 58.7615 126.773C54.9689 123.045 51.9711 118.588 49.9492 113.67C47.9273 108.752 46.9232 103.475 46.9975 98.1579C46.9975 71.765 70.2916 58.6328 70.2916 58.6328L70.467 71.7182C70.467 71.7182 95.293 48.6346 101.678 42.8812C100.906 41.934 70.467 0 70.467 0L70.2799 21.3295C70.2799 21.3295 0 36.2742 0 110.097C0 127.428 6.01063 143.471 14.2197 158.241C15.1966 157.911 16.2434 157.846 17.2538 158.051C18.2642 158.256 19.2023 158.725 19.9731 159.41C31.9007 169.479 46.7168 164.497 60.0361 160.428C73.3553 156.358 87.5399 152.359 101.058 158.171C108.355 161.316 114.845 166.251 123.031 166.731C130.164 167.14 137.262 165.386 144.36 164.859C148.494 164.496 152.658 164.713 156.732 165.503C159.851 159.593 162.809 153.579 165.608 147.459C173.209 130.561 177.536 112.939 173.396 94.2171Z" fill="#1A659E"/>
</svg>
