<svg width="866" height="866" viewBox="0 0 866 866" fill="none" xmlns="http://www.w3.org/2000/svg">
<path d="M433.037 670.249C564.099 670.249 670.344 564.003 670.344 432.942C670.344 301.881 564.099 195.635 433.037 195.635C301.976 195.635 195.73 301.881 195.73 432.942C195.73 564.003 301.976 670.249 433.037 670.249Z" fill="white"/>
<path d="M433.042 676.103C384.97 676.108 337.976 661.858 298.003 635.156C258.029 608.454 226.871 570.499 208.467 526.09C190.064 481.681 185.241 432.812 194.61 385.662C203.979 338.512 227.118 295.199 261.102 261.199C295.086 227.199 338.388 204.04 385.533 194.648C432.678 185.257 481.55 190.056 525.968 208.439C570.386 226.821 608.356 257.962 635.077 297.923C661.798 337.884 676.069 384.87 676.088 432.942C676.039 497.397 650.42 559.201 604.854 604.788C559.288 650.376 497.497 676.024 433.042 676.103ZM433.042 201.489C387.241 201.485 342.469 215.063 304.386 240.507C266.304 265.951 236.623 302.117 219.097 344.431C201.571 386.745 196.987 433.307 205.927 478.226C214.866 523.145 236.926 564.405 269.316 596.785C301.706 629.166 342.972 651.214 387.894 660.14C432.816 669.065 479.376 664.468 521.685 646.929C563.994 629.391 600.152 599.699 625.584 561.609C651.017 523.519 664.582 478.742 664.563 432.942C664.521 371.541 640.118 312.665 596.712 269.238C553.306 225.81 494.442 201.378 433.042 201.305V201.489Z" fill="#003459"/>
<path d="M532.038 321.479C534.343 319.175 533.168 315.233 531.554 312.375C527.675 305.493 521.877 299.887 514.867 296.241C517.011 295.319 517.034 292.369 516.826 290.041C516.112 281.652 504.68 284.51 496.682 284.832C487.785 285.178 478.497 283.38 469.761 285.017C458.698 287.091 420.046 301.934 410.25 320.419C386.234 288.612 357.031 252.357 340.667 276.281C329.788 292.185 341.312 321.779 406.101 379.031C404.221 386.596 402.987 394.306 402.414 402.08C401.999 407.796 400.109 418.698 403.197 423.63C406.091 420.293 409.763 417.721 413.887 416.141C418.012 414.561 422.462 414.023 426.845 414.572C436.963 415.632 446.459 420.196 456.554 421.487C464.926 422.428 473.398 421.12 481.096 417.697C488.793 414.273 495.439 408.858 500.347 402.011C501.116 401.075 501.604 399.94 501.753 398.738C501.7 397.564 501.334 396.426 500.692 395.442C497.479 389.499 493.614 383.933 489.168 378.847C499.724 372.716 511.156 367.692 520.007 359.279C528.857 350.866 534.643 337.706 530.263 326.32C529.896 325.61 529.744 324.809 529.826 324.015C530.102 322.885 531.255 322.309 532.038 321.479ZM394.347 351.903C368.002 323.116 344.862 300.736 355.164 290.249C365.905 279.416 384.597 310.163 402.229 328.763C399.855 330.837 394.762 351.903 394.347 351.903Z" fill="white"/>
<path d="M530.426 319.936C530.673 319.637 530.855 319.29 530.958 318.917C531.061 318.543 531.084 318.152 531.025 317.769C530.61 314.266 528.075 311.085 525.839 308.227C521.562 303.231 516.191 299.288 510.143 296.703L513.877 293.96C513.954 293.897 514.016 293.818 514.062 293.73C514.409 292.376 514.409 290.957 514.062 289.604C512.656 284.303 500.094 288.06 494.862 287.668C486.726 287.806 479.143 286.515 471.33 287.668C458.778 290.797 446.745 295.727 435.605 302.304C427.077 307.351 417.834 313.252 412.879 321.826L410.712 325.813C400.156 312.768 362.933 255.285 344.748 275.107C322.321 299.791 380.288 351.12 397.39 367.946C397.805 368.384 408.73 378.271 408.73 378.318C406.663 385.932 405.335 393.727 404.766 401.597C404.489 408.511 402.461 416.071 405.273 422.455L401.378 422.11C421.038 400.214 443.672 421.073 466.605 418.722C473.124 418.088 479.42 416.012 485.037 412.643C490.654 409.275 495.451 404.698 499.08 399.246C499.403 398.462 499.08 398.208 498.804 397.309C495.236 390.453 490.83 384.066 485.689 378.294C497.605 371.38 511.181 366.194 520.631 356.007C527.822 348.032 532.362 336.462 527.868 326.044C527.6 325.323 527.517 324.547 527.626 323.786C527.734 323.026 528.031 322.304 528.49 321.687C529.098 321.028 529.745 320.404 530.426 319.821V319.936ZM533.653 323.024C532.8 323.854 532.109 324.315 531.97 324.522C531.958 324.645 531.958 324.769 531.97 324.891C536.718 336.554 531.463 349.922 523.281 358.519C513.9 368.361 501.454 373.892 490.022 380.53L490.483 377.764C494.269 382.057 497.656 386.686 500.601 391.593C502.215 394.336 504.796 397.678 503.298 401.043C493.111 419.205 469.555 428.701 449.526 423.262C431.756 418.284 416.382 410.655 402.692 427.872C396.999 419.943 399.488 410.032 400.133 401.251C400.793 393.605 402.011 386.017 403.775 378.548L404.489 380.853C382.893 361.492 323.105 309.887 336.796 278.31C340.092 271.188 347.375 265.127 355.65 266.417C376.762 269.805 398.589 303.295 411.45 319.429L408.822 319.636C411.655 314.873 415.389 310.708 419.816 307.374C434.922 295.891 452.242 287.659 470.684 283.197C478.682 281.929 486.98 283.197 494.839 283.197C501.754 283.473 515.583 278.587 518.464 288.636C519.086 291.038 518.916 293.576 517.98 295.873C517.485 296.873 516.675 297.683 515.675 298.178V294.605C523.488 298.132 541.028 314.012 533.561 323.07L533.653 323.024Z" fill="#003459"/>
<path d="M393.466 353.955C389.386 350.405 384.016 344.735 380.167 340.794C371.608 332.385 363.938 323.117 357.28 313.136C353.961 307.627 350.135 302.326 350.365 295.319C351.218 286.584 360.184 282.827 367.352 287.575C375.304 292.715 380.628 300.367 386.874 306.89C391 311.246 400.219 322.24 404.091 327.057L403.884 330.676C400.934 334.778 399.436 341.324 397.914 346.556C397.661 347.501 397.039 350.152 396.831 351.166C396.722 351.783 396.544 352.386 396.301 352.964C396.118 353.372 395.801 353.706 395.402 353.909C395.1 354.082 394.763 354.184 394.415 354.208C394.068 354.232 393.72 354.177 393.397 354.047L393.466 353.955ZM395.264 349.852C394.957 349.708 394.623 349.633 394.284 349.633C393.946 349.633 393.611 349.708 393.305 349.852C392.955 350.062 392.662 350.355 392.452 350.705C392.507 350.618 392.553 350.525 392.59 350.428L392.867 349.76C394.711 344.735 396.416 338.697 398.122 333.626C398.716 331.315 399.748 329.139 401.164 327.218L401.003 329.961C387.174 319.128 379.775 301.128 364.817 292C361.336 289.972 358.501 289.696 356.335 292.761C351.218 300.275 366.453 318.46 371.386 324.683C376.986 331.114 383.578 337.959 389.64 344.067C391.161 345.588 393.927 348.1 395.264 349.76V349.852Z" fill="#003459"/>
<path d="M419.475 237.284C404.585 222.948 394.559 228.341 378.402 268.607C378.402 269.114 409.426 299.33 410.14 301.773C410.255 301.773 434.456 251.62 419.475 237.284ZM407.766 268.146C405.461 273.654 401.82 281.975 399.054 287.921C395.55 284.257 391.655 280.407 388.221 277.019C388.866 275.429 390.341 272.824 391.079 271.303C400.621 251.712 405.139 245.028 409.656 247.84C416.294 252.012 409.264 264.481 407.766 268.146Z" fill="white"/>
<path d="M417.997 238.874C408.778 229.401 401.702 230.093 394.373 240.603C388.567 249.602 383.598 259.115 379.529 269.022V268.607C379.573 268.56 379.597 268.498 379.597 268.434C379.597 268.37 379.573 268.308 379.529 268.261V268.376L380.013 268.883C384.047 273.101 391.031 279.877 395.225 284.072C398.959 287.829 405.805 294.675 409.285 298.57C410.092 299.405 410.775 300.352 411.313 301.382L408.663 301.151C414.932 287.184 429.245 251.482 417.744 238.92L417.997 238.874ZM421.063 235.694C435.03 250.744 419.104 286.4 411.843 302.534L411.175 303.894L408.594 302.257C407.095 300.298 403.362 296.242 401.541 294.283C395.018 287.368 386.26 278.149 379.668 271.511C378.987 270.845 378.341 270.145 377.732 269.413C377.558 269.118 377.426 268.8 377.34 268.468L377.455 268.169C384.577 250.26 397.461 211.907 421.132 235.694H421.063Z" fill="#003459"/>
<path d="M409.823 269.021C406.388 276.304 403.023 283.656 399.474 290.871L397.861 289.119C394.542 285.546 390.208 280.706 386.82 277.295L387.143 276.627L393.804 262.913C396.869 257.312 399.382 250.835 404.683 246.641C405.787 245.907 407.114 245.584 408.432 245.727C409.75 245.87 410.976 246.471 411.897 247.424C417.521 253.647 412.404 262.751 409.823 269.021ZM405.72 267.361C407.518 262.751 413.395 252.933 408.279 249.476C407.725 249.222 407.38 249.222 406.55 249.683C401.94 253.232 399.428 259.087 396.339 264.227C394.034 268.629 391.591 273.077 389.287 277.502L389.033 276.235C392.191 279.416 396.962 283.703 400.235 286.837L397.584 287.275C400.235 280.591 403 273.999 405.72 267.361Z" fill="#003459"/>
<path d="M407.783 268.145C405.479 273.654 401.837 281.974 399.071 287.921C395.568 284.256 391.673 280.407 388.238 277.019C388.884 275.428 390.359 272.824 391.096 271.303C400.638 251.712 405.156 245.028 409.673 247.839C416.311 252.011 409.282 264.48 407.783 268.145Z" fill="#FF6B35"/>
<path d="M359.655 475.582C361.43 469.267 367.492 465.118 373.484 462.652C379.477 460.186 386.138 458.826 391.716 455.345C400.174 450.044 405.314 440.456 413.911 435.362C435.185 422.801 463.535 443.729 486.514 434.625C490.225 433.173 493.797 430.914 497.762 430.914C507.327 430.914 511.89 444.259 507.373 452.672C502.855 461.084 493.405 465.348 484.624 469.128C481.305 470.58 477.387 472.931 477.709 476.55C478.032 480.169 482.112 481.874 485.615 482.496C493.106 483.81 500.827 483.303 508.249 484.801C515.67 486.299 523.276 490.679 525.581 497.916C527.102 502.733 526.48 508.91 530.629 511.745C532.719 512.961 535.134 513.501 537.543 513.289C545.796 513.259 553.966 511.639 561.606 508.518C566.584 506.513 571.425 503.909 576.772 503.309C582.119 502.71 588.296 505.291 589.771 510.454C591.246 515.617 588.434 521.978 592.56 525.228C595.51 527.533 599.705 525.874 603.439 525.966C610.884 526.127 616.461 533.779 616.761 541.201C617.061 548.622 576.265 646.21 444.335 646.21C318.629 646.21 251.304 565.54 245.081 548.438C244.625 547.533 244.364 546.542 244.317 545.529C244.269 544.516 244.435 543.505 244.805 542.561C245.732 541.244 247.069 540.271 248.608 539.795C260.359 534.79 273.099 532.536 285.854 533.203C292.93 533.572 300.167 534.84 306.99 532.927C317.638 529.93 325.013 519.835 335.5 516.263C342.553 513.958 350.459 514.626 357.281 511.653C362.928 509.187 372.793 499.068 369.912 491.877C368.667 488.743 364.864 488.697 362.559 486.415C361.193 485.006 360.209 483.271 359.701 481.375C359.192 479.48 359.177 477.485 359.655 475.582Z" fill="#6AD9CC"/>
<path d="M402.364 328.763C399.875 330.837 394.781 351.811 394.366 351.811C368.022 323.024 344.881 300.644 355.184 290.157C366.04 279.416 384.732 310.163 402.364 328.763Z" fill="#FF6B35"/>
<path d="M120.275 381.083C122.291 381.496 124.356 381.612 126.406 381.429C128.71 381.268 131.292 381.06 133.827 380.807C136.363 380.553 138.852 380.369 141.272 380.207C143.368 380.023 145.481 380.147 147.541 380.576C150.528 381.044 153.262 382.525 155.285 384.771C156.052 385.956 156.542 387.299 156.717 388.7C156.893 390.101 156.75 391.523 156.299 392.861L151.92 411.899C150.384 418.399 145.866 420.773 138.368 419.021C134.822 418.222 131.38 417.016 128.111 415.425C124.815 413.835 121.519 412.176 118.154 410.401C114.789 408.626 111.378 406.944 107.829 405.284C104.132 403.596 100.27 402.299 96.3043 401.412C92.3736 400.486 88.3564 399.976 84.3191 399.891C80.4239 399.891 76.5748 399.891 72.7949 399.891C69.0149 399.891 65.3041 400.075 61.6624 400.075C58.0785 400.066 54.5068 399.657 51.0141 398.854C43.362 397.102 40.2735 392.953 41.7947 386.454L50.7836 347.479C52.4258 340.149 54.6375 332.959 57.3985 325.974C59.5435 320.362 62.6647 315.172 66.6178 310.647C70.0674 306.797 74.4961 303.953 79.4328 302.419C85.1029 300.902 91.0721 300.902 96.7422 302.419C100.631 303.226 104.35 304.7 107.736 306.775C110.406 308.439 112.807 310.498 114.858 312.883C116.596 314.938 117.968 317.277 118.915 319.797C119.72 321.875 120.397 323.999 120.943 326.159C121.381 328.026 121.704 329.593 121.911 330.768C122.119 331.944 122.441 332.728 122.856 332.82C123.271 332.912 124.216 332.52 125.691 331.644L131.154 328.44L138.414 324.223C141.037 322.719 143.754 321.387 146.55 320.235C149.154 319.138 151.844 318.26 154.594 317.608C156.908 317.011 159.328 316.948 161.67 317.423C164.728 317.905 167.536 319.398 169.645 321.664C170.432 322.844 170.941 324.188 171.132 325.593C171.324 326.999 171.193 328.43 170.751 329.777L166.372 348.792C164.873 355.292 160.333 357.666 152.796 355.937C148.743 354.974 144.605 354.411 140.442 354.255C136.961 354.089 133.477 354.518 130.139 355.522C127.286 356.362 124.682 357.889 122.556 359.971C120.46 362.162 119.029 364.903 118.431 367.876L117.324 372.486C117.023 373.779 116.861 375.1 116.84 376.427C116.81 377.445 117.065 378.452 117.578 379.332C117.876 379.8 118.271 380.198 118.736 380.501C119.201 380.803 119.726 381.001 120.275 381.083ZM58.6431 349.668C57.9073 352.378 58.1859 355.263 59.4267 357.781C60.7731 360.326 62.6613 362.545 64.9584 364.281C67.6214 366.343 70.5426 368.047 73.6476 369.351C76.9666 370.78 80.3163 372.048 83.6968 373.155C87.0849 374.261 90.4039 375.206 93.6537 375.943L101.836 377.833C102.401 377.98 102.99 378.007 103.566 377.911C104.141 377.816 104.691 377.601 105.178 377.28C106.229 376.556 107.085 375.582 107.667 374.445C108.364 373.145 108.95 371.788 109.419 370.389C109.906 368.992 110.314 367.568 110.64 366.125C111.266 363.408 111.629 360.637 111.724 357.85C111.829 354.921 111.194 352.012 109.88 349.392C108.228 346.344 105.854 343.748 102.965 341.832C98.6995 339.124 93.9606 337.248 88.9979 336.3C84.3928 335.088 79.6113 334.69 74.8692 335.125C71.6602 335.445 68.5724 336.519 65.8573 338.259C63.7845 339.665 62.0776 341.546 60.8788 343.745C59.892 345.579 59.1408 347.53 58.6431 349.553V349.668Z" fill="black"/>
<path d="M148.262 249.131C149.48 247.35 150.145 245.249 150.175 243.092C150.22 240.782 150.104 238.472 149.829 236.178C149.552 233.929 149.405 231.667 149.391 229.401C149.302 227.45 149.835 225.521 150.913 223.893C151.212 223.455 151.788 222.74 152.595 221.726C153.55 220.674 154.755 219.882 156.098 219.421C157.921 218.797 159.874 218.654 161.768 219.006C164.742 219.632 167.538 220.916 169.951 222.763C172.584 224.422 174.857 226.593 176.635 229.148C177.771 230.861 178.511 232.806 178.801 234.841C178.996 236.347 178.838 237.878 178.34 239.312C178.033 240.25 177.616 241.147 177.096 241.986C175.995 243.503 174.435 244.627 172.647 245.189C170.642 245.904 168.545 246.619 166.309 247.287C164.112 247.965 161.957 248.773 159.855 249.707C157.856 250.558 156.139 251.956 154.9 253.74C153.507 255.652 152.49 257.811 151.904 260.102C151.71 261.088 151.844 262.11 152.285 263.013C152.726 263.916 153.45 264.65 154.347 265.103C156.905 266.878 160.063 268.952 163.774 271.303C167.383 273.615 171.25 275.495 175.298 276.904C178.99 278.211 182.931 278.661 186.822 278.218C188.846 277.903 190.775 277.141 192.469 275.989C194.163 274.837 195.58 273.323 196.618 271.557C198.172 269.54 198.985 267.05 198.923 264.504C198.703 262.206 198.054 259.97 197.009 257.912C195.874 255.651 194.596 253.465 193.183 251.366C191.736 249.2 190.53 246.881 189.588 244.452C188.644 242.056 188.212 239.488 188.32 236.915C188.692 234.08 189.698 231.365 191.262 228.971C192.826 226.577 194.908 224.566 197.355 223.086C199.4 221.983 201.672 221.368 203.993 221.288C206.347 221.225 208.691 221.6 210.908 222.395C213.271 223.229 215.511 224.376 217.569 225.806C219.654 227.011 221.404 228.722 222.656 230.78C223.909 232.838 224.624 235.177 224.737 237.583C224.737 242.193 222.432 247.963 217.822 254.893L180.092 309.633C176.312 315.119 171.226 315.672 164.834 311.292C161.845 309.228 159.093 306.839 156.629 304.171C154.155 301.482 151.689 298.708 149.23 295.85C146.772 292.992 144.198 290.142 141.509 287.299C138.717 284.38 135.627 281.761 132.289 279.486C128.974 277.182 125.428 275.228 121.71 273.654C118.092 272.156 114.519 270.773 110.947 269.506C107.374 268.238 104.032 266.901 100.529 265.564C97.2053 264.229 94.0368 262.536 91.0788 260.517C84.6252 256.076 83.2807 251.105 87.0453 245.604L124.729 190.841C129.501 183.927 133.949 179.686 138.397 178.118C142.846 176.551 147.317 177.404 152.088 180.7C154.116 182.081 155.947 183.733 157.527 185.609C159.058 187.376 160.239 189.417 161.008 191.625C161.785 193.842 162.022 196.212 161.699 198.539C161.336 201.138 160.338 203.608 158.795 205.73C157.121 208.408 154.724 210.558 151.881 211.931C149.536 212.94 147.012 213.465 144.459 213.475C141.859 213.471 139.269 213.169 136.738 212.576C134.28 211.993 131.785 211.585 129.27 211.354C126.986 211.117 124.678 211.32 122.471 211.954C120.087 212.788 118.061 214.415 116.732 216.563C115.454 218.165 114.541 220.025 114.055 222.015C113.57 224.006 113.524 226.078 113.92 228.088C114.851 231.903 116.676 235.442 119.244 238.413C121.957 241.676 125.053 244.601 128.463 247.126C131.967 249.73 134.986 251.92 137.568 253.694C138.328 254.381 139.288 254.807 140.308 254.911C141.328 255.015 142.354 254.79 143.237 254.271C145.233 252.903 146.941 251.157 148.262 249.131Z" fill="black"/>
<path d="M219.741 103.879C227.185 98.9273 235.426 95.2941 244.103 93.1384C251.597 91.2668 259.396 90.9608 267.013 92.2395C274.341 93.5363 281.277 96.4841 287.296 100.86C300.495 110.858 309.716 125.217 313.318 141.379C314.816 148.702 314.619 156.27 312.742 163.505C310.716 170.952 307.195 177.908 302.393 183.949C290.963 197.802 275.492 207.738 258.14 212.368C250.668 214.236 242.889 214.526 235.299 213.221C227.953 211.874 221 208.905 214.947 204.532C201.695 194.585 192.479 180.189 188.994 163.989C187.569 156.681 187.781 149.148 189.617 141.932C191.608 134.5 195.107 127.557 199.896 121.534C205.46 114.564 212.171 108.594 219.741 103.879ZM278.123 194.851C282.023 192.49 285.135 189.025 287.066 184.894C288.805 180.724 289.456 176.179 288.955 171.688C288.332 166.173 286.846 160.791 284.553 155.738C281.772 149.438 278.489 143.372 274.735 137.599C271.046 131.744 266.883 126.201 262.288 121.027C258.646 116.874 254.386 113.305 249.658 110.448C245.791 108.126 241.397 106.825 236.889 106.668C232.324 106.701 227.872 108.089 224.097 110.655C220.238 112.984 217.169 116.422 215.293 120.52C213.542 124.688 212.891 129.235 213.403 133.727C214.014 139.223 215.46 144.593 217.69 149.653C220.42 156.01 223.698 162.118 227.485 167.908C231.164 173.739 235.336 179.245 239.954 184.364C243.639 188.526 247.937 192.102 252.7 194.967C256.562 197.301 260.959 198.603 265.469 198.747C269.982 198.745 274.391 197.388 278.123 194.851Z" fill="black"/>
<path d="M336.518 110.679C335.933 106.672 334.849 102.754 333.292 99.0162C331.747 95.3745 330.134 91.8482 328.405 88.414C326.677 84.9797 325.086 81.4994 323.588 78.2035C322.132 74.9173 321.117 71.453 320.569 67.9008C319.401 60.1411 322.105 55.7542 328.682 54.74L347.997 51.813C349.373 51.4661 350.81 51.4415 352.198 51.7414C353.585 52.0412 354.884 52.6573 355.994 53.5416C358.12 55.8563 359.403 58.8201 359.636 61.9542C360.099 65.2254 361.022 68.4148 362.379 71.4272C363.75 74.3356 365.535 77.0295 367.68 79.425C370.185 82.2316 372.922 84.8222 375.862 87.1692C379.089 89.766 382.846 92.6471 387.133 95.8124L394.047 100.883C397.044 103.188 400.086 105.262 403.128 107.429C406.171 109.595 408.96 111.439 411.472 113.007C413.984 114.574 415.575 115.311 416.22 115.311C416.865 115.311 417.28 114.574 417.465 113.329C417.677 111.895 417.731 110.442 417.626 108.996C417.525 107.19 417.332 105.39 417.05 103.603C416.773 101.69 416.52 100.053 416.312 98.6704C415.705 94.6582 414.614 90.7346 413.062 86.985C411.541 83.3663 409.905 79.8398 408.199 76.3826C406.494 72.9253 404.857 69.4681 403.382 66.1952C401.909 62.9136 400.885 59.448 400.34 55.8925C399.164 48.1251 401.861 43.746 408.476 42.7319L414.998 41.7408C416.378 41.3901 417.82 41.3637 419.212 41.6636C420.603 41.9635 421.907 42.5816 423.019 43.4694C425.14 45.7871 426.423 48.7493 426.661 51.882C427.199 55.4385 427.254 59.0517 426.822 62.6227C426.407 66.2874 425.9 69.9982 425.347 73.8012C424.794 77.6042 424.287 81.4302 423.918 85.3254C423.526 89.3581 423.65 93.4245 424.287 97.4258C424.873 101.433 425.957 105.35 427.514 109.088C429.058 112.73 430.648 116.256 432.308 119.714C433.967 123.171 435.558 126.628 437.033 129.924C438.519 133.259 439.55 136.779 440.098 140.388C440.789 143.405 440.431 146.567 439.084 149.354C438.288 150.529 437.231 151.505 435.995 152.204C434.76 152.904 433.38 153.309 431.962 153.388L412.578 156.246C405.986 157.229 402.145 153.902 401.054 146.266C400.413 142.462 398.829 138.88 396.444 135.848C393.86 132.502 390.957 129.415 387.778 126.628C384.619 123.853 381.311 121.252 377.867 118.838C374.525 116.533 371.806 114.597 369.731 113.053C367.265 111.255 364.73 109.365 362.079 107.36C359.429 105.355 356.939 103.58 354.565 101.966C352.191 100.353 350.14 99.0623 348.342 98.0251C347.277 97.2379 346.019 96.7523 344.701 96.6192C344.078 96.6192 343.663 97.2415 343.479 98.1865C343.286 99.3283 343.24 100.49 343.341 101.644C343.44 103.037 343.625 104.422 343.894 105.792C344.171 107.221 344.378 108.466 344.539 109.526C345.133 113.534 346.224 117.452 347.789 121.189C349.326 124.83 350.924 128.372 352.583 131.814C354.243 135.271 355.81 138.729 357.308 142.025C358.792 145.36 359.823 148.88 360.374 152.489C361.047 155.507 360.69 158.663 359.359 161.455C358.561 162.633 357.5 163.61 356.26 164.31C355.021 165.01 353.636 165.413 352.214 165.488L345.692 166.479C339.069 167.463 335.189 164.136 334.052 156.499C333.495 152.89 333.433 149.223 333.868 145.597C334.283 141.932 334.813 138.199 335.435 134.419C336.057 130.639 336.564 126.767 336.933 122.894C337.32 118.822 337.181 114.716 336.518 110.679Z" fill="black"/>
<path d="M498.477 102.957C500.581 103.437 502.781 103.277 504.793 102.496C506.948 101.686 509.05 100.739 511.085 99.6612C513.068 98.5711 515.116 97.6013 517.216 96.757C518.997 95.971 520.982 95.7692 522.886 96.1808C523.416 96.2961 524.292 96.5495 525.536 96.9413C526.882 97.3979 528.088 98.1914 529.04 99.2462C530.28 100.713 531.122 102.476 531.483 104.363C531.994 107.358 531.829 110.429 530.999 113.352C530.427 116.408 529.243 119.316 527.518 121.903C526.349 123.592 524.812 124.994 523.024 126.006C521.681 126.732 520.193 127.149 518.668 127.227C517.688 127.283 516.706 127.221 515.741 127.043C513.922 126.578 512.304 125.535 511.131 124.069C509.717 122.533 508.288 120.827 506.844 118.953C505.411 117.157 503.871 115.448 502.234 113.836C500.705 112.294 498.772 111.215 496.657 110.724C494.403 110.124 492.055 109.968 489.742 110.263C488.754 110.445 487.853 110.944 487.175 111.684C486.497 112.425 486.079 113.366 485.985 114.366C485.271 117.385 484.51 121.073 483.68 125.406C482.856 129.617 482.538 133.912 482.735 138.198C482.861 142.145 483.894 146.009 485.755 149.492C486.795 151.254 488.213 152.764 489.907 153.911C491.601 155.059 493.528 155.817 495.55 156.13C497.992 156.849 500.608 156.694 502.949 155.692C505.016 154.658 506.863 153.234 508.388 151.497C510.045 149.603 511.585 147.61 512.998 145.528C514.482 143.4 516.189 141.437 518.092 139.673C519.968 137.915 522.189 136.565 524.614 135.709C527.626 134.842 530.822 134.842 533.834 135.709C536.38 136.244 538.755 137.4 540.748 139.074C542.535 140.563 543.948 142.449 544.874 144.583C545.798 146.775 546.306 149.119 546.372 151.497C546.455 154 546.207 156.503 545.635 158.942C545.275 161.326 544.323 163.582 542.865 165.503C541.407 167.424 539.491 168.948 537.291 169.936C533.019 171.703 526.796 171.641 518.622 169.751L453.856 154.793C447.356 153.256 444.982 148.731 446.734 141.217C447.554 137.675 448.768 134.234 450.352 130.961C451.889 127.688 453.564 124.377 455.377 121.027C457.19 117.677 458.895 114.235 460.494 110.701C462.181 107.005 463.479 103.143 464.366 99.1771C465.286 95.2447 465.803 91.229 465.91 87.1919C465.91 83.2967 465.91 79.4476 465.91 75.6676C465.91 71.8877 465.726 68.1768 465.749 64.5352C465.75 60.9521 466.152 57.3804 466.947 53.8868C468.714 46.204 472.847 43.1308 479.347 44.6674L544.113 59.626C552.288 61.5159 557.912 64.1972 560.985 67.6699C562.527 69.5489 563.575 71.7832 564.033 74.1701C564.492 76.557 564.348 79.0208 563.612 81.3376C563.065 83.7474 562.196 86.073 561.031 88.2521C559.947 90.332 558.476 92.1859 556.698 93.7146C554.93 95.2147 552.84 96.2872 550.59 96.8492C548.039 97.4817 545.373 97.4817 542.823 96.8492C539.749 96.2905 536.891 94.8857 534.571 92.7926C532.771 90.9755 531.36 88.8111 530.423 86.4312C529.467 84.0203 528.794 81.5066 528.417 78.9405C528.053 76.4415 527.522 73.9698 526.827 71.542C526.195 69.3328 525.155 67.2612 523.762 65.4341C522.087 63.5218 519.811 62.2372 517.308 61.7924C515.356 61.1984 513.298 61.0351 511.277 61.3137C509.255 61.5922 507.318 62.306 505.599 63.4058C502.4 65.6781 499.779 68.6704 497.947 72.1413C495.962 75.8927 494.415 79.8601 493.338 83.9651C492.208 88.183 491.286 91.8016 490.572 94.844C490.211 95.8056 490.168 96.8577 490.451 97.8453C490.733 98.8329 491.325 99.7037 492.139 100.33C494.069 101.594 496.219 102.486 498.477 102.957Z" fill="black"/>
<path d="M573.913 127.32C578.518 120.471 584.413 114.584 591.268 109.987C597.468 105.866 604.506 103.174 611.874 102.105C619.507 101.089 627.267 101.662 634.668 103.787C643.249 106.237 651.348 110.134 658.616 115.311C664.395 119.272 669.915 123.599 675.142 128.265C679.307 131.889 682.87 136.152 685.698 140.895C687.992 144.72 689.166 149.112 689.086 153.572C688.775 158.327 687.076 162.887 684.2 166.686C682.81 168.833 680.93 170.618 678.714 171.895C676.812 172.97 674.694 173.607 672.514 173.762C670.427 173.926 668.327 173.675 666.337 173.025C664.438 172.411 662.637 171.526 660.99 170.397C657.003 168.035 654.007 164.31 652.554 159.91C651.617 156.176 652.539 151.743 655.32 146.611C658.777 140.111 660.222 134.926 659.653 131.053C659.423 129.203 658.8 127.424 657.826 125.834C656.852 124.244 655.55 122.88 654.006 121.834C650.376 119.158 646.022 117.639 641.514 117.478C636.997 117.448 632.549 118.592 628.607 120.797C623.759 123.463 619.344 126.852 615.515 130.846C605.969 140.844 598.038 152.267 592.006 164.704C589.568 169.7 587.912 175.04 587.096 180.538C586.413 185.003 586.897 189.569 588.502 193.791C590.214 197.965 593.156 201.519 596.938 203.979C598.438 205.059 600.152 205.807 601.964 206.173C603.777 206.539 605.646 206.514 607.448 206.099C611.29 205.3 615.654 202.135 620.54 196.603C624.366 192.201 628.215 189.804 632.064 189.366C636.695 189.206 641.228 190.72 644.833 193.63C646.46 194.774 647.911 196.148 649.143 197.71C650.452 199.338 651.424 201.21 652.001 203.218C652.603 205.322 652.744 207.531 652.416 209.695C651.971 212.198 650.954 214.565 649.443 216.609C646.892 220.649 643.214 223.854 638.863 225.829C634.713 227.441 630.198 227.872 625.818 227.073C620.38 226.087 615.135 224.235 610.283 221.588C604.077 218.32 598.087 214.655 592.352 210.617C584.926 205.62 578.416 199.383 573.106 192.178C568.528 185.996 565.28 178.933 563.564 171.434C562.002 164.132 562.088 156.573 563.818 149.308C565.752 141.403 569.179 133.94 573.913 127.32Z" fill="black"/>
<path d="M739.4 194.207L774.78 248.762C780.634 257.767 783.2 265.327 782.478 271.442C782.15 274.419 781.136 277.279 779.516 279.799C777.897 282.318 775.715 284.428 773.143 285.963C771.313 287.076 769.3 287.857 767.197 288.267C764.924 288.754 762.583 288.832 760.282 288.498C757.884 288.128 755.591 287.256 753.552 285.939C751.284 284.476 749.364 282.533 747.928 280.247C745.871 277.485 744.691 274.168 744.54 270.728C744.585 268.113 745.386 265.568 746.845 263.398C748.305 261.222 750.112 259.299 752.192 257.705C754.336 256.069 756.364 254.524 758.254 253.095C759.88 251.917 761.351 250.538 762.633 248.993C763.11 248.468 763.394 247.797 763.44 247.09C763.486 246.382 763.291 245.68 762.887 245.098C761.827 243.461 759.775 242.793 756.71 243.139C753.152 243.578 749.665 244.477 746.338 245.812C742.203 247.416 738.176 249.287 734.284 251.413C730.12 253.672 726.409 255.854 723.151 257.959C719.07 260.626 715.216 263.624 711.627 266.925C708.055 270.22 704.713 273.447 701.394 276.651C698.075 279.855 695.032 282.897 692.036 285.87C689.249 288.604 686.209 291.066 682.955 293.223C680.479 295.081 677.452 296.055 674.358 295.989C672.961 295.743 671.639 295.179 670.496 294.339C669.352 293.5 668.418 292.408 667.766 291.148L657.14 274.761C653.53 269.153 654.966 264.251 661.451 260.056C664.735 257.956 668.217 256.18 671.845 254.755C675.718 253.211 679.774 251.62 684.061 250.007C688.348 248.394 692.681 246.619 697.153 244.683C701.643 242.748 705.961 240.435 710.06 237.768C713.317 235.663 716.821 233.166 720.57 230.278C724.108 227.607 727.458 224.696 730.596 221.565C733.176 219.077 735.423 216.264 737.28 213.199C738.824 210.525 739.032 208.335 737.925 206.63C737.571 205.996 737.006 205.506 736.328 205.245C735.65 204.984 734.903 204.968 734.215 205.201C732.286 205.704 730.439 206.48 728.729 207.506C726.701 208.704 724.488 209.949 722.114 211.239C719.813 212.492 717.321 213.357 714.739 213.798C712.168 214.235 709.525 213.915 707.133 212.876C704.055 211.352 701.503 208.945 699.803 205.961C698.311 203.718 697.32 201.178 696.899 198.517C696.542 196.115 696.691 193.666 697.337 191.326C697.94 189.097 698.957 187.002 700.333 185.149C701.585 183.396 703.147 181.888 704.943 180.7C707.393 178.98 710.207 177.85 713.166 177.398C716.124 176.947 719.148 177.185 721.999 178.096C727.746 179.909 733.546 185.279 739.4 194.207Z" fill="black"/>
<path d="M717.183 402.542C718.473 402.359 719.777 402.297 721.078 402.357C722.484 402.357 723.982 402.357 725.573 402.357C727.159 402.313 728.738 402.144 730.298 401.85C731.982 401.514 733.601 400.907 735.092 400.052C736.59 399.162 737.732 397.776 738.318 396.134C739.002 394.247 739.384 392.263 739.448 390.257C739.53 387.946 739.414 385.633 739.102 383.342C738.779 380.899 738.457 378.548 738.111 376.312C737.765 374.077 737.281 371.311 736.797 368.937C736.397 366.773 735.795 364.651 734.999 362.599C734.417 360.907 733.518 359.343 732.349 357.989C731.862 357.435 731.268 356.986 730.602 356.669C729.937 356.352 729.213 356.174 728.477 356.145C726.826 356.182 725.191 356.486 723.637 357.044C722.057 357.617 720.517 358.295 719.027 359.072L714.786 361.377C713.63 362.016 712.376 362.46 711.075 362.691C707.997 363.395 704.767 362.9 702.04 361.308C699.843 359.771 698.36 356.514 697.592 351.535L696.762 346.119C696.413 344.755 696.371 343.33 696.638 341.947C696.905 340.564 697.475 339.258 698.306 338.121C700.183 336.144 702.714 334.915 705.428 334.664C709.517 334.06 713.684 334.272 717.69 335.286C722.076 336.367 726.381 337.754 730.574 339.435C734.93 341.14 739.286 343.007 743.689 344.99C747.888 346.918 752.207 348.573 756.619 349.945C763.779 352.265 770.479 354.194 776.717 355.73C782.236 357.334 788.029 357.774 793.727 357.021C796.228 356.762 798.663 356.059 800.918 354.946C802.022 354.183 803.268 353.65 804.583 353.379C805.544 353.263 806.519 353.347 807.447 353.625C808.375 353.902 809.236 354.368 809.976 354.993C812.021 356.831 813.269 359.394 813.456 362.138L815.761 377.603C816.179 379.883 816.288 382.209 816.084 384.518C815.933 386.156 815.396 387.736 814.517 389.127C813.669 390.394 812.551 391.457 811.244 392.239C809.712 393.138 808.108 393.909 806.45 394.544C799.498 397.319 792.724 400.521 786.167 404.132C779.852 407.666 773.398 411.684 766.806 416.186C763.165 418.699 759.523 421.418 755.904 424.299C752.286 427.18 748.598 429.946 744.933 432.528C741.354 435.039 737.612 437.311 733.732 439.327C730.121 441.213 726.229 442.505 722.208 443.153C719.524 443.725 716.724 443.282 714.348 441.908C713.225 441.083 712.297 440.022 711.628 438.8C710.959 437.577 710.566 436.223 710.476 434.833L707.756 417.293C706.972 412.199 707.41 408.603 709.024 406.483C711.146 404.183 714.062 402.775 717.183 402.542ZM747.745 356.191C747.23 356.103 746.7 356.22 746.269 356.517C745.839 356.815 745.541 357.268 745.44 357.782C744.99 359.276 744.773 360.831 744.795 362.391C744.765 364.496 744.896 366.599 745.187 368.683C745.487 370.988 745.786 373.086 746.086 374.999C746.385 376.912 746.731 379.101 747.169 381.59C747.567 383.928 748.114 386.237 748.806 388.505C749.279 390.271 750.059 391.941 751.11 393.437C751.491 394 752.059 394.409 752.714 394.591C753.369 394.772 754.067 394.715 754.683 394.428C757.768 393.126 760.691 391.471 763.395 389.496C766.837 387.13 770.148 384.602 773.329 381.913C776.51 379.24 779.229 376.773 781.488 374.469C783.747 372.164 784.83 370.689 784.715 370.043C784.6 369.398 783.194 368.43 780.428 367.116C777.662 365.802 774.366 364.419 770.494 363.013C766.622 361.607 762.612 360.225 758.44 358.911C754.935 357.782 751.363 356.874 747.745 356.191Z" fill="black"/>
<path d="M120.204 444.489C127.566 445.757 134.551 448.655 140.648 452.971C146.873 457.495 152.099 463.254 155.999 469.888C160.501 477.612 163.658 486.045 165.333 494.827C166.795 501.668 167.811 508.597 168.376 515.57C168.894 521.07 168.536 526.616 167.315 532.004C166.337 536.353 164.166 540.344 161.046 543.528C157.542 546.76 153.166 548.892 148.462 549.659C145.97 550.261 143.371 550.261 140.879 549.659C138.761 549.114 136.787 548.115 135.094 546.732C133.475 545.42 132.134 543.798 131.152 541.961C130.194 540.204 129.496 538.317 129.078 536.36C127.839 531.899 128.231 527.143 130.184 522.946C132.097 519.604 135.808 517.022 141.363 515.224C148.277 512.92 152.887 510.131 155.192 506.927C156.28 505.43 157.038 503.719 157.416 501.907C157.793 500.095 157.782 498.224 157.382 496.417C156.594 491.981 154.49 487.886 151.343 484.662C148.08 481.539 144.074 479.302 139.703 478.163C134.322 476.751 128.757 476.176 123.201 476.457C109.432 477.113 95.8525 479.929 82.9581 484.8C77.7811 486.741 72.9311 489.462 68.5758 492.867C65.0068 495.634 62.2057 499.268 60.4397 503.424C58.8307 507.638 58.5177 512.237 59.5408 516.63C59.8884 518.449 60.619 520.172 61.6841 521.686C62.7491 523.2 64.1241 524.47 65.7178 525.412C69.0599 527.463 74.384 528.178 81.8517 527.555C87.66 527.002 92.1006 527.893 95.1738 530.229C98.6374 533.307 100.879 537.528 101.489 542.122C101.877 544.079 101.986 546.081 101.812 548.069C101.627 550.147 101.031 552.168 100.06 554.015C99.0639 555.962 97.6467 557.663 95.9113 558.994C93.8688 560.513 91.5021 561.538 88.9968 561.99C84.3698 563.141 79.5077 562.916 75.0064 561.344C70.827 559.674 67.1956 556.873 64.5193 553.254C61.2617 548.791 58.7405 543.834 57.0516 538.573C54.8067 531.929 52.9975 525.146 51.6352 518.267C49.688 509.54 49.2514 500.543 50.3445 491.669C51.262 484.042 53.7329 476.684 57.6048 470.049C61.4979 463.709 66.7386 458.303 72.955 454.215C86.9886 445.376 103.75 441.92 120.135 444.489H120.204Z" fill="black"/>
<path d="M106.222 641.277C103.894 633.942 103.11 626.205 103.917 618.551C104.789 611.185 107.276 604.102 111.201 597.808C120.214 583.915 133.926 573.729 149.83 569.112C157.042 567.184 164.592 566.885 171.933 568.237C179.491 569.729 186.657 572.774 192.977 577.179C207.544 587.684 218.464 602.48 224.207 619.496C226.526 626.857 227.31 634.615 226.512 642.291C225.672 649.675 223.158 656.77 219.16 663.035C210.042 676.859 196.311 686.995 180.415 691.638C173.229 693.583 165.696 693.875 158.381 692.491C150.81 690.957 143.633 687.89 137.292 683.479C122.724 672.974 111.805 658.179 106.061 641.162L106.222 641.277ZM195.074 592.53C190.802 591.053 186.222 590.704 181.775 591.516C176.3 592.494 171.006 594.305 166.079 596.886C153.825 603.281 142.636 611.538 132.912 621.363C129.033 625.309 125.77 629.815 123.232 634.731C121.157 638.741 120.148 643.218 120.305 647.731C120.57 652.217 122.176 656.521 124.915 660.085C127.517 663.836 131.187 666.719 135.448 668.359C139.712 669.833 144.282 670.19 148.724 669.396C154.165 668.415 159.421 666.595 164.304 664.003C170.439 660.814 176.298 657.121 181.821 652.963C187.393 648.914 192.627 644.421 197.471 639.526C201.422 635.615 204.728 631.103 207.267 626.157C209.336 622.153 210.351 617.687 210.217 613.181C209.899 608.628 208.221 604.276 205.4 600.689C202.848 597.001 199.252 594.159 195.074 592.53Z" fill="black"/>
<path d="M307.942 742.16C306.102 745.765 304.709 749.581 303.793 753.523C302.94 757.372 302.203 761.199 301.604 765.048C301.004 768.897 300.336 772.538 299.598 776.134C298.891 779.667 297.704 783.086 296.072 786.298C292.523 793.305 287.775 795.295 281.828 792.268L264.426 783.44C263.102 782.928 261.913 782.116 260.953 781.069C259.994 780.021 259.289 778.766 258.895 777.402C258.518 774.273 259.2 771.109 260.831 768.413C262.337 765.505 263.431 762.402 264.081 759.193C264.662 756.031 264.779 752.801 264.426 749.605C264.014 745.871 263.289 742.178 262.26 738.565C261.154 734.554 259.771 730.037 258.111 724.966C257.489 723.099 256.613 720.357 255.438 716.83C254.262 713.304 253.133 709.754 251.865 706.251C250.597 702.748 249.56 699.59 248.293 696.847C247.807 695.134 246.932 693.556 245.734 692.237C245.158 691.938 244.443 692.237 243.568 693.136C242.565 694.184 241.676 695.335 240.917 696.571C240.018 698 239.119 699.567 238.243 701.18C237.368 702.794 236.63 704.384 235.939 705.629C234.095 709.238 232.709 713.063 231.813 717.015C230.937 720.864 230.199 724.667 229.508 728.539C228.817 732.411 228.24 736.03 227.503 739.648C226.789 743.169 225.611 746.579 223.999 749.789C220.427 756.704 215.702 758.801 209.732 755.782L203.832 752.786C202.509 752.268 201.323 751.452 200.368 750.4C199.412 749.349 198.712 748.091 198.323 746.724C197.923 743.605 198.598 740.442 200.236 737.758C201.873 734.558 203.927 731.59 206.344 728.931C208.834 726.195 211.4 723.453 214.042 720.702C216.716 717.959 219.344 715.079 221.925 712.128C227.22 705.952 230.952 698.592 232.804 690.67C233.657 686.844 234.417 683.018 235.109 679.261C235.8 675.504 236.446 671.793 237.183 668.198C237.908 664.616 239.117 661.15 240.779 657.895C241.967 655.043 244.088 652.678 246.794 651.188C248.13 650.694 249.561 650.516 250.977 650.668C252.392 650.82 253.753 651.298 254.954 652.064L272.355 660.892C278.325 663.888 279.546 668.866 276.043 675.758C274.346 679.222 273.553 683.06 273.738 686.913C273.865 691.153 274.421 695.37 275.398 699.498C276.343 703.597 277.528 707.638 278.947 711.598C280.307 715.447 281.413 718.513 282.197 721.048C283.165 723.929 284.133 726.948 285.124 730.106C286.115 733.264 287.106 736.191 288.097 738.864C289.088 741.538 290.01 743.82 290.863 745.779C291.279 747.044 292.028 748.174 293.03 749.052C293.583 749.329 294.228 749.052 294.943 748.476C295.757 747.664 296.462 746.749 297.04 745.756C297.771 744.562 298.425 743.322 298.999 742.045C299.621 740.731 300.175 739.579 300.659 738.634C302.502 735.025 303.888 731.2 304.784 727.248C305.66 723.399 306.421 719.596 307.089 715.724C307.758 711.852 308.426 708.279 309.164 704.661C309.892 701.087 311.101 697.629 312.759 694.381C313.955 691.528 316.073 689.158 318.775 687.651C320.112 687.169 321.542 686.997 322.955 687.149C324.369 687.301 325.729 687.772 326.934 688.527L332.834 691.523C338.781 694.596 340.002 699.559 336.499 706.412C334.841 709.665 332.764 712.687 330.322 715.401C327.856 718.121 325.251 720.841 322.555 723.583C319.858 726.326 317.184 729.138 314.603 732.111C311.979 735.175 309.742 738.55 307.942 742.16Z" fill="black"/>
<path d="M376.859 765.531C375.874 765.836 375.011 766.448 374.397 767.277C373.784 768.106 373.451 769.11 373.448 770.141C373.033 773.23 372.595 777.056 372.157 781.274C371.718 785.515 371.787 789.794 372.365 794.019C372.847 797.917 374.228 801.649 376.398 804.921C377.615 806.557 379.173 807.909 380.964 808.884C382.754 809.859 384.735 810.434 386.77 810.568C389.268 811.061 391.859 810.67 394.099 809.462C396.05 808.256 397.755 806.692 399.124 804.852C400.681 802.836 402.091 800.71 403.342 798.491C404.626 796.22 406.173 794.108 407.952 792.199C409.68 790.313 411.773 788.8 414.106 787.75C417.036 786.6 420.233 786.304 423.325 786.897C425.941 787.187 428.443 788.121 430.608 789.617C432.523 790.94 434.102 792.692 435.218 794.734C436.323 796.797 437.034 799.048 437.315 801.372C437.638 803.804 437.638 806.269 437.315 808.701C436.509 814.44 434.065 818.405 429.963 820.548C425.86 822.692 419.66 823.199 411.363 822.046L345.513 812.965C338.891 812.043 336.125 807.702 337.216 799.943C337.704 796.389 338.593 792.902 339.866 789.548C341.157 786.137 342.517 782.633 343.969 779.199C345.421 775.765 346.827 772.123 348.141 768.459C349.505 764.66 350.464 760.727 350.999 756.727C351.554 752.726 351.701 748.68 351.437 744.65C351.16 740.747 350.791 736.905 350.33 733.125C349.869 729.368 349.478 725.681 349.178 722.062C348.855 718.437 348.948 714.787 349.455 711.183C350.515 703.5 354.356 700.12 360.979 701.042L426.828 710.123C435.156 711.275 440.995 713.442 444.345 716.623C446.048 718.326 447.296 720.431 447.973 722.743C448.649 725.054 448.733 727.499 448.217 729.852C447.884 732.333 447.225 734.758 446.258 737.067C445.354 739.23 444.057 741.207 442.432 742.898C440.802 744.548 438.815 745.802 436.624 746.563C434.136 747.419 431.474 747.64 428.88 747.208C425.767 746.945 422.793 745.802 420.306 743.912C418.361 742.255 416.79 740.205 415.696 737.896C414.554 735.568 413.658 733.127 413.022 730.613C412.407 728.155 411.637 725.737 410.717 723.376C409.919 721.204 408.705 719.208 407.145 717.498C405.31 715.739 402.925 714.664 400.392 714.456C398.389 714.028 396.317 714.05 394.324 714.52C392.331 714.99 390.467 715.898 388.867 717.176C385.865 719.759 383.498 723.001 381.953 726.649C380.246 730.583 379.016 734.707 378.288 738.934C377.528 743.29 376.928 747 376.513 750.089C376.247 751.055 376.304 752.082 376.674 753.014C377.044 753.946 377.708 754.731 378.565 755.252C380.655 756.367 382.94 757.071 385.295 757.326C387.445 757.62 389.634 757.3 391.61 756.404C393.715 755.484 395.763 754.437 397.741 753.27C399.746 752.071 401.682 750.965 403.572 749.997C405.189 749.06 407.062 748.664 408.92 748.867C409.888 749.048 410.832 749.342 411.732 749.743C413.133 750.345 414.373 751.268 415.35 752.44C416.669 754.013 417.615 755.865 418.116 757.856C418.785 760.887 418.848 764.02 418.3 767.076C418.041 770.1 417.112 773.029 415.581 775.65C414.555 777.28 413.136 778.627 411.455 779.568C410.186 780.24 408.765 780.574 407.329 780.536C406.039 780.536 405.024 780.398 404.587 780.328C402.658 780.029 400.875 779.125 399.493 777.747C397.866 776.206 396.327 774.575 394.883 772.861C393.368 771.123 391.743 769.483 390.02 767.951C388.408 766.524 386.412 765.602 384.281 765.301C381.817 764.874 379.292 764.952 376.859 765.531Z" fill="black"/>
<path d="M517.133 757.949C515.889 754.11 514.252 750.41 512.246 746.909C510.28 743.544 508.274 740.271 506.231 737.09C504.187 733.909 502.22 730.759 500.33 727.64C498.478 724.569 496.978 721.298 495.859 717.891C493.416 710.438 495.367 705.675 501.713 703.601L520.267 697.516C521.58 696.948 523.004 696.685 524.432 696.745C525.861 696.805 527.258 697.186 528.519 697.862C531.046 699.756 532.838 702.469 533.589 705.537C534.697 708.95 535.423 712.474 535.756 716.047C536.079 719.666 536.355 723.376 536.586 727.133C536.816 730.89 537.116 734.739 537.554 738.657C537.995 742.671 538.86 746.627 540.135 750.458C541.253 754.007 542.801 757.405 544.745 760.577C546.496 763.342 548.271 765.878 550.046 768.183C551.821 770.487 553.48 772.792 555.047 774.936C556.703 777.311 557.993 779.922 558.873 782.68C559.723 784.851 560.085 787.182 559.933 789.508C559.782 791.834 559.121 794.098 557.998 796.14C555.502 800.246 552.066 803.699 547.971 806.212C543.239 809.22 538.192 811.701 532.921 813.611C527.297 815.662 521.95 817.529 516.787 819.212C511.19 821.087 505.37 822.219 499.477 822.577C494.28 822.935 489.059 822.413 484.035 821.033C479.49 819.757 475.29 817.472 471.75 814.349C468.117 811.079 465.447 806.879 464.029 802.202C463.314 800.019 462.91 797.745 462.83 795.449C462.734 793.14 463.135 790.836 464.006 788.696C464.964 786.457 466.395 784.452 468.201 782.818C470.416 780.892 473.017 779.462 475.83 778.623C478.057 777.89 480.405 777.593 482.744 777.748C485.034 777.899 487.273 778.494 489.336 779.499C491.49 780.561 493.416 782.033 495.006 783.832C496.795 785.911 498.136 788.335 498.947 790.954C499.846 793.697 500.768 796.44 501.713 799.114C502.557 801.626 503.736 804.014 505.217 806.212C506.489 808.141 508.312 809.643 510.449 810.523C512.976 811.363 515.72 811.282 518.193 810.292C519.712 809.877 521.12 809.131 522.315 808.107C523.511 807.082 524.464 805.806 525.107 804.369C526.411 800.884 526.839 797.132 526.352 793.444C525.808 788.177 524.789 782.97 523.31 777.886C521.604 771.97 519.545 765.325 517.133 757.949Z" fill="black"/>
<path d="M606.694 723.237C606.156 724.113 605.913 725.138 606 726.163C606.088 727.187 606.5 728.157 607.178 728.93C608.906 731.511 611.027 734.6 613.562 738.149C616.032 741.623 618.911 744.788 622.136 747.576C625.062 750.198 628.57 752.087 632.37 753.085C634.364 753.511 636.428 753.499 638.418 753.049C640.408 752.6 642.276 751.723 643.894 750.48C646.094 749.201 647.78 747.196 648.665 744.81C649.326 742.616 649.568 740.317 649.379 738.034C649.198 735.514 648.836 733.011 648.296 730.543C647.75 728.007 647.495 725.416 647.535 722.822C647.577 720.266 648.15 717.746 649.218 715.423C650.634 712.634 652.817 710.308 655.51 708.716C657.669 707.217 660.161 706.267 662.77 705.95C665.107 705.674 667.475 705.95 669.685 706.757C671.883 707.571 673.908 708.791 675.655 710.353C677.497 711.967 679.117 713.82 680.472 715.861C683.668 720.701 684.436 725.311 682.777 729.69C681.117 734.023 676.807 738.495 669.8 743.128L614.484 779.844C608.937 783.532 603.989 782.103 599.641 775.557C597.625 772.567 595.955 769.358 594.662 765.992C593.372 762.58 592.104 759.077 590.905 755.505C589.707 751.932 588.37 748.313 586.918 744.672C583.88 737.173 579.365 730.362 573.642 724.643C570.876 721.908 568.072 719.28 565.229 716.76C562.418 714.248 559.675 711.736 557.047 709.223C554.444 706.704 552.125 703.906 550.133 700.88C545.869 694.426 546.491 689.356 552.069 685.668L607.385 648.951C614.376 644.342 620.185 642.106 624.81 642.244C627.214 642.404 629.541 643.162 631.578 644.45C633.615 645.738 635.297 647.516 636.472 649.62C637.858 651.711 638.966 653.973 639.768 656.35C640.516 658.575 640.844 660.92 640.736 663.265C640.615 665.58 639.96 667.836 638.823 669.856C637.509 672.135 635.657 674.058 633.43 675.457C630.91 677.306 627.925 678.415 624.81 678.661C622.235 678.717 619.676 678.238 617.296 677.255C614.905 676.261 612.626 675.018 610.497 673.544C608.425 672.092 606.262 670.776 604.02 669.603C601.978 668.498 599.738 667.809 597.428 667.575C594.889 667.45 592.386 668.216 590.352 669.741C588.562 670.745 587.014 672.131 585.819 673.8C584.624 675.469 583.811 677.38 583.438 679.399C582.934 683.276 583.32 687.217 584.567 690.923C585.901 695.001 587.712 698.908 589.96 702.562C592.265 706.319 594.27 709.477 595.999 712.104C596.439 713.005 597.162 713.738 598.056 714.191C598.95 714.644 599.968 714.794 600.955 714.617C603.258 714.085 605.435 713.106 607.362 711.736C609.162 710.528 610.59 708.845 611.488 706.872C612.461 704.793 613.301 702.652 614 700.465C614.738 698.16 615.475 696.132 616.305 694.15C616.91 692.37 618.064 690.829 619.601 689.747C620.45 689.261 621.346 688.859 622.274 688.549C623.764 688.081 625.339 687.954 626.884 688.18C628.922 688.515 630.86 689.303 632.554 690.485C635.067 692.314 637.19 694.625 638.8 697.284C640.602 699.733 641.837 702.551 642.419 705.536C642.736 707.43 642.561 709.374 641.912 711.182C641.418 712.531 640.575 713.724 639.469 714.64C638.431 715.446 637.717 716 637.164 716.299C635.518 717.349 633.581 717.85 631.632 717.728C629.372 717.674 627.117 717.489 624.879 717.175C622.587 716.862 620.277 716.708 617.964 716.714C615.809 716.689 613.696 717.315 611.903 718.512C609.879 719.738 608.111 721.342 606.694 723.237Z" fill="black"/>
<path d="M708.061 636.068C709.707 637.312 711.524 638.313 713.454 639.041C715.759 639.94 718.064 640.816 720.369 641.692C722.674 642.568 724.979 643.467 727.283 644.366C729.254 645.114 731.109 646.139 732.792 647.408C735.284 649.114 737.109 651.631 737.955 654.53C738.131 655.932 737.99 657.355 737.543 658.695C737.097 660.036 736.355 661.258 735.373 662.274L723.204 677.532C719.04 682.741 713.931 682.933 707.877 678.109C705.03 675.839 702.448 673.257 700.178 670.41C697.874 667.575 695.569 664.625 693.402 661.606C691.236 658.587 688.792 655.544 686.303 652.525C681.098 646.318 674.703 641.216 667.496 637.52C664.023 635.769 660.55 634.132 657.078 632.611C653.605 631.09 650.232 629.553 646.959 628.001C643.733 626.442 640.688 624.532 637.878 622.308C631.732 617.391 630.749 612.336 634.928 607.142L659.89 575.866C664.52 569.96 669.614 564.434 675.125 559.34C679.505 555.209 684.576 551.878 690.106 549.498C694.876 547.518 700.094 546.872 705.203 547.631C710.97 548.719 716.351 551.302 720.807 555.122C723.964 557.539 726.684 560.477 728.851 563.811C730.528 566.463 731.795 569.354 732.608 572.385C733.29 574.961 733.532 577.634 733.322 580.291C733.16 582.506 732.852 584.708 732.4 586.883C732.008 588.773 731.639 590.317 731.271 591.492C730.902 592.668 730.902 593.475 731.271 593.797C732.26 594.121 733.318 594.176 734.336 593.959L740.651 593.429C743.164 593.221 745.953 592.991 749.018 592.783C752.032 592.549 755.057 592.511 758.076 592.668C760.899 592.817 763.704 593.195 766.466 593.797C768.816 594.25 771.032 595.236 772.942 596.678C775.486 598.433 777.368 600.989 778.29 603.939C778.494 605.346 778.374 606.782 777.938 608.136C777.503 609.49 776.764 610.727 775.777 611.752L763.608 627.01C759.444 632.219 754.335 632.411 748.28 627.586C745.045 624.943 741.555 622.627 737.863 620.672C734.787 619.031 731.462 617.909 728.021 617.353C725.083 616.896 722.078 617.157 719.262 618.113C716.425 619.189 713.949 621.042 712.117 623.461L709.098 627.241C708.249 628.262 707.529 629.385 706.955 630.583C706.483 631.482 706.275 632.497 706.355 633.51C706.457 634.028 706.661 634.52 706.953 634.959C707.246 635.398 707.622 635.775 708.061 636.068ZM666.113 581.098C664.284 583.235 663.286 585.96 663.301 588.773C663.427 591.649 664.174 594.464 665.49 597.024C667.012 600.026 668.909 602.822 671.137 605.345C673.504 608.064 675.977 610.653 678.559 613.112C681.14 615.57 683.729 617.875 686.326 620.026L692.895 625.258C693.334 625.645 693.853 625.929 694.415 626.093C694.976 626.256 695.567 626.294 696.145 626.203C697.403 626.012 698.593 625.504 699.602 624.728C700.799 623.86 701.917 622.888 702.944 621.824C703.997 620.782 704.983 619.673 705.894 618.505C707.643 616.349 709.187 614.034 710.504 611.591C711.864 608.99 712.545 606.089 712.486 603.155C712.347 599.608 711.299 596.156 709.444 593.129C706.787 588.836 703.328 585.096 699.256 582.112C695.639 579.015 691.504 576.581 687.041 574.921C684.012 573.82 680.765 573.457 677.568 573.86C675.071 574.214 672.697 575.171 670.653 576.649C668.961 577.938 667.436 579.433 666.113 581.098Z" fill="black"/>
<path d="M797.112 534.701C798.649 536.913 798.81 540.54 797.596 545.58L793.632 562.866C793.437 564.245 792.944 565.566 792.188 566.736C791.432 567.906 790.43 568.898 789.253 569.642C786.782 570.832 783.959 571.07 781.324 570.311C777.346 569.385 773.541 567.829 770.054 565.701C766.335 563.408 762.771 560.875 759.382 558.118C755.894 555.26 752.445 552.256 749.033 549.106C745.622 545.956 742.196 542.96 738.754 540.117C732.515 535.139 726.369 530.66 720.315 526.68C714.012 522.549 707.462 518.808 700.701 515.478C699.097 514.726 697.556 513.847 696.091 512.851C694.799 511.944 693.74 510.745 692.999 509.351C692.258 507.957 691.856 506.408 691.827 504.83C691.793 502.545 692.064 500.266 692.634 498.054L696.137 482.796C696.504 480.061 697.927 477.579 700.101 475.881C700.882 475.302 701.776 474.893 702.726 474.683C703.675 474.472 704.658 474.464 705.61 474.659C706.903 475.012 708.11 475.624 709.159 476.457C711.321 477.754 713.705 478.637 716.189 479.062C721.814 480.24 727.621 480.24 733.245 479.062C739.591 477.863 746.437 476.403 753.781 474.682C758.278 473.633 762.705 472.301 767.034 470.695C771.644 469.013 776.046 467.491 780.518 466.085C784.816 464.716 789.206 463.653 793.655 462.905C797.726 462.166 801.903 462.252 805.94 463.158C808.649 463.597 811.107 465.006 812.855 467.123C813.608 468.314 814.085 469.659 814.253 471.058C814.42 472.458 814.273 473.877 813.823 475.213L812.601 480.56C811.472 485.492 809.743 488.627 807.461 489.964C804.634 491.37 801.374 491.635 798.357 490.701C797.069 490.381 795.845 489.843 794.738 489.111L790.567 486.691C789.086 485.815 787.546 485.045 785.957 484.386C784.456 483.707 782.85 483.286 781.209 483.141C780.469 483.117 779.732 483.244 779.043 483.513C778.353 483.783 777.726 484.189 777.199 484.709C775.954 485.936 774.946 487.381 774.225 488.973C773.281 490.97 772.51 493.044 771.92 495.173C771.275 497.477 770.653 499.921 770.077 502.456C769.5 504.991 769.062 507.066 768.555 509.37C768.08 511.647 767.802 513.96 767.726 516.285C767.635 518.291 767.868 520.299 768.417 522.231C768.878 523.914 769.914 525.382 771.344 526.38C772.756 527.337 774.312 528.061 775.954 528.524C777.464 528.932 779.006 529.21 780.564 529.354C782.131 529.492 783.629 529.584 785.058 529.653C786.36 529.688 787.656 529.842 788.93 530.114C792.156 530.503 795.097 532.152 797.112 534.701ZM751.177 483.579C746.905 484.593 742.795 485.661 738.846 486.783C734.905 487.912 731.493 489.088 728.635 490.148C725.777 491.208 724.302 492.13 724.141 492.776C723.98 493.421 724.971 494.942 727.068 497.385C729.166 499.828 731.678 502.525 734.651 505.429C737.624 508.333 740.736 511.076 744.009 513.704C746.563 515.865 749.354 517.728 752.329 519.258C752.926 519.585 753.618 519.69 754.285 519.555C754.951 519.42 755.549 519.054 755.971 518.521C757.164 517.117 758.094 515.508 758.714 513.773C759.567 511.578 760.275 509.33 760.834 507.043C761.449 504.599 761.979 502.433 762.425 500.543C762.862 498.653 763.3 496.579 763.761 494.32C764.209 492.255 764.502 490.159 764.637 488.051C764.758 486.505 764.641 484.951 764.291 483.441C764.233 482.923 763.973 482.448 763.568 482.12C763.162 481.792 762.644 481.638 762.125 481.689C758.438 482.077 754.78 482.708 751.177 483.579Z" fill="black"/>
<path d="M234.139 458.895C231.454 455.678 230.109 451.552 230.383 447.371V413.351C230.109 409.17 231.454 405.043 234.139 401.827C237.167 399.197 241.042 397.748 245.053 397.748C249.063 397.748 252.939 399.197 255.966 401.827C258.652 405.043 259.997 409.17 259.723 413.351V420.058H250.296V412.706C250.296 408.787 248.637 406.828 245.318 406.828C241.999 406.828 240.339 408.787 240.339 412.706V448.131C240.339 452.003 241.999 453.939 245.318 453.939C248.637 453.939 250.296 452.003 250.296 448.131V438.451H259.723V447.417C259.997 451.598 258.652 455.724 255.966 458.941C252.939 461.571 249.063 463.019 245.053 463.019C241.042 463.019 237.167 461.571 234.139 458.941V458.895Z" fill="black"/>
<path d="M269.047 458.802C266.273 455.529 264.877 451.307 265.152 447.025V413.697C264.874 409.414 266.271 405.191 269.047 401.919C272.168 399.229 276.151 397.75 280.272 397.75C284.392 397.75 288.375 399.229 291.496 401.919C294.273 405.191 295.669 409.414 295.392 413.697V447.025C295.667 451.307 294.271 455.529 291.496 458.802C288.375 461.492 284.392 462.972 280.272 462.972C276.151 462.972 272.168 461.492 269.047 458.802ZM285.435 447.647V413.074C285.435 408.903 283.706 406.828 280.272 406.828C276.837 406.828 275.109 408.903 275.109 413.074V447.647C275.109 451.819 276.837 453.916 280.272 453.916C283.706 453.916 285.435 451.819 285.435 447.647Z" fill="black"/>
<path d="M302.094 398.646H314.609L324.289 436.607H324.474V398.646H333.347V462.052H323.114L311.152 415.771H310.967V462.052H302.094V398.646Z" fill="black"/>
<path d="M563.633 398.646H573.613V452.994H590.046V462.052H563.633V398.646Z" fill="black"/>
<path d="M602.846 398.646H616.352L626.678 462.052H616.698L614.9 449.468V449.652H603.583L601.762 462.052H592.543L602.846 398.646ZM613.725 441.009L609.276 409.686H609.092L604.759 441.009H613.725Z" fill="black"/>
<path d="M450.489 328.948C454.804 328.948 458.303 325.449 458.303 321.134C458.303 316.819 454.804 313.321 450.489 313.321C446.174 313.321 442.676 316.819 442.676 321.134C442.676 325.449 446.174 328.948 450.489 328.948Z" fill="#003459"/>
<path d="M516.911 295.804C514.099 298.8 508.59 301.589 504.949 298.109C504.745 297.951 504.576 297.751 504.454 297.524C504.332 297.296 504.259 297.045 504.239 296.788C504.22 296.53 504.255 296.272 504.343 296.029C504.43 295.785 504.567 295.563 504.746 295.377C504.924 295.19 505.14 295.043 505.379 294.945C505.618 294.847 505.875 294.801 506.133 294.808C506.391 294.816 506.645 294.878 506.878 294.99C507.11 295.102 507.317 295.261 507.484 295.458C507.83 295.956 508.347 296.309 508.936 296.449C510.112 296.525 511.291 296.36 512.401 295.964C513.511 295.567 514.528 294.948 515.39 294.144C516.473 293.246 517.925 294.905 516.911 295.873V295.804Z" fill="#003459"/>
<path d="M530.89 323.462C525.52 328.233 516.301 332.151 509.64 326.919C507.727 325.375 502.379 319.636 505.768 317.861C506.251 317.642 506.801 317.623 507.297 317.809C507.794 317.995 508.197 318.37 508.418 318.852C510.492 326.089 517.246 328.071 523.907 325.513C525.961 324.454 527.868 323.128 529.577 321.572C529.818 321.386 530.124 321.303 530.426 321.342C530.729 321.381 531.003 321.538 531.19 321.779C531.289 321.906 531.359 322.053 531.398 322.209C531.436 322.366 531.442 322.528 531.413 322.687C531.385 322.845 531.324 322.996 531.234 323.13C531.144 323.263 531.027 323.376 530.89 323.462Z" fill="#003459"/>
<path d="M492.002 378.778C488.983 380.438 484.581 382.097 481.446 383.526C479.694 384.448 473.679 386.246 473.287 388.136C473.088 388.747 472.655 389.254 472.082 389.546C471.509 389.838 470.844 389.89 470.233 389.692C469.622 389.493 469.114 389.06 468.823 388.487C468.531 387.914 468.479 387.249 468.677 386.638C470.498 382.143 476.329 381.613 480.202 380.207C483.841 379.231 487.427 378.062 490.942 376.704C491.217 376.566 491.536 376.544 491.827 376.641C492.119 376.738 492.36 376.947 492.498 377.222C492.635 377.497 492.658 377.816 492.561 378.108C492.464 378.399 492.254 378.641 491.979 378.778H492.002Z" fill="#003459"/>
<path d="M433.058 865.885C194.322 865.885 0 671.679 0 432.943C0 194.206 194.229 0 432.965 0C671.702 0 866 194.206 866 432.943C866 671.679 671.771 865.885 433.058 865.885ZM433.058 11.0172C200.383 11.0172 11.1094 200.291 11.1094 432.943C11.1094 665.594 200.383 854.868 433.058 854.868C665.732 854.868 855.098 665.594 855.098 432.943C855.098 200.291 665.709 11.0172 433.058 11.0172Z" fill="#003459"/>
</svg>
