<svg width="175" height="258" viewBox="0 0 175 258" fill="none" xmlns="http://www.w3.org/2000/svg">
<path d="M130.035 178.085C122.518 178.897 114.92 177.686 108.028 174.577C101.315 171.548 95.1645 166.918 87.5635 166.719C73.8583 166.368 61.0185 173.174 47.8045 175.793C39.2563 177.489 31.2226 177.313 23.7737 174.624C32.1114 188.516 40.9402 202.128 49.8392 215.646C57.8612 227.831 66.9941 239.302 75.8697 250.914C81.1436 257.814 88.7329 259.463 94.7201 254.925C97.5149 252.797 99.4912 249.57 101.736 246.74C119.593 224.042 136.689 200.841 150.991 175.863C143.565 175.442 133.894 177.746 130.035 178.085Z" fill="#003459"/>
<path d="M107.993 132.713C106.344 123.732 103.058 114.003 96.5563 107.618C97.7737 107.35 98.9524 106.93 100.064 106.367C102.294 105.064 103.96 102.981 104.742 100.52C103.175 101.841 100.509 102.859 96.5563 102.204C103.035 102.321 101.971 99.3156 105.011 98.2164C105.017 98.1307 105.017 98.0448 105.011 97.9592C104.973 97.3342 104.814 96.7226 104.543 96.1583C103.923 98.2047 101.491 96.9184 100.953 96.4156C101.129 96.0881 102.345 94.5329 103.152 94.7317C102.298 94.4681 101.432 94.2495 100.556 94.0768C98.9419 93.5038 97.983 91.89 96.6031 90.8843C94.0071 88.9666 90.3937 89.5045 87.248 90.3582C86.2664 90.6178 85.3017 90.938 84.3597 91.317C81.7987 88.2532 80.1148 85.7157 77.7994 83.3769C70.6311 76.1151 65.3455 84.6867 71.438 90.4985C72.315 91.3288 73.0401 92.2175 75.5075 94.7784C74.2941 93.4863 72.9972 92.2754 71.6251 91.1533C62.2116 83.4822 55.2537 93.0477 64.6088 99.5144C65.977 100.462 71.1573 104.344 72.0227 105.022C66.0843 111.424 61.8993 119.25 59.8728 127.743V127.837C60.8697 128.869 61.9889 129.777 63.2055 130.538C64.7196 131.417 66.3179 132.142 67.9766 132.701C69.719 133.345 71.4848 134.046 73.2155 134.654C74.932 135.213 76.6768 135.682 78.4426 136.058C80.2592 136.568 82.1183 136.912 83.9972 137.087C85.8834 137.102 87.769 137.012 89.6453 136.818C93.2613 136.746 96.8679 136.422 100.439 135.847C103.147 135.394 105.734 134.391 108.04 132.9C108.015 132.84 108 132.777 107.993 132.713ZM90.8147 93.2699C90.8683 93.2061 90.9314 93.1509 91.0018 93.1062C91.2201 92.9508 91.4822 92.8689 91.7502 92.8723C91.9309 92.871 92.11 92.9069 92.2764 92.9776C92.4375 93.0473 92.5842 93.1465 92.7091 93.2699C92.7667 93.3263 92.8177 93.3891 92.8611 93.457C92.9108 93.531 92.9539 93.6093 92.9897 93.6909C93.0633 93.8522 93.0993 94.0281 93.095 94.2054C93.0962 94.3862 93.0604 94.5653 92.9897 94.7317C92.9184 94.8856 92.8237 95.0276 92.7091 95.1526C92.4508 95.3996 92.1075 95.5378 91.7502 95.5385C91.3986 95.5354 91.0626 95.3936 90.8151 95.1439C90.5676 94.8942 90.4288 94.557 90.4288 94.2054C90.4278 94.0317 90.4615 93.8595 90.5277 93.6989C90.594 93.5383 90.6915 93.3925 90.8147 93.2699ZM74.9929 91.8784C74.607 91.434 74.2562 91.013 73.9405 90.6037C73.7768 90.4049 73.6364 90.2061 73.4961 90.019C73.374 89.8617 73.2608 89.6978 73.157 89.5279C73.0517 89.3759 72.9582 89.2121 72.8646 89.0601C72.7739 88.9171 72.6919 88.7687 72.6191 88.6157C72.5396 88.4803 72.4692 88.3397 72.4086 88.1948C72.2443 87.8217 72.1303 87.4285 72.0695 87.0254C72.005 86.5932 72.0516 86.1516 72.2051 85.7425C72.3585 85.3333 72.6137 84.9699 72.9465 84.6866C73.0974 84.532 73.2802 84.4121 73.4821 84.3353C73.6841 84.2586 73.9004 84.2268 74.1159 84.2423C74.2247 84.2307 74.3345 84.2307 74.4433 84.2423H74.5486L74.8877 84.3358C75.0203 84.3804 75.1493 84.4352 75.2736 84.4996C75.3627 84.5353 75.4487 84.5783 75.5308 84.6282L75.7881 84.7685C75.9635 84.8737 76.1506 84.9907 76.326 85.1193L76.6067 85.3298C76.7938 85.4701 76.9809 85.6221 77.168 85.7858C77.4603 86.0314 77.7527 86.3004 78.045 86.581L78.3374 86.8734C78.5478 87.0839 78.7466 87.2827 78.9454 87.5049L79.495 88.1129C80.1148 88.7911 80.7229 89.5279 81.3076 90.2763L81.8806 91.0013L82.4536 91.738L83.0032 92.4748C81.6867 93.6712 80.5098 95.0128 79.495 96.474C78.5829 95.5619 77.741 94.7316 76.9926 93.9481L75.601 92.463L74.9929 91.8784ZM64.8778 92.9776C66.4681 91.2469 69.45 92.4396 76.6417 99.6781C75.4094 101.081 74.2577 102.553 73.1921 104.087C64.1878 97.199 62.6442 95.4216 64.9011 92.9776H64.8778Z" fill="#797979"/>
<path d="M105.057 98.2398C105.075 98.5085 105.075 98.778 105.057 99.0467C105.012 99.5544 104.914 100.056 104.765 100.543C103.198 101.865 100.532 102.882 96.5791 102.227C103.081 102.344 102.017 99.339 105.057 98.2398Z" fill="#FF6B35"/>
<path d="M104.578 96.17C103.958 98.2164 101.105 96.9769 100.567 96.4741C100.742 96.1466 102.321 94.1353 103.186 94.7434L103.326 94.8252C103.881 95.1226 104.321 95.5956 104.578 96.17Z" fill="#FF6B35"/>
<path d="M93.0949 94.2054C93.0949 94.3815 93.06 94.5558 92.9923 94.7183C92.9246 94.8808 92.8254 95.0282 92.7003 95.1522C92.5753 95.2761 92.4269 95.3741 92.2639 95.4404C92.1008 95.5067 91.9262 95.5401 91.7501 95.5385C91.3986 95.5354 91.0625 95.3936 90.815 95.1439C90.5675 94.8942 90.4287 94.557 90.4287 94.2054C90.4287 93.8539 90.5675 93.5165 90.815 93.2669C91.0625 93.0172 91.3986 92.8754 91.7501 92.8723C91.9262 92.8708 92.1008 92.9041 92.2639 92.9704C92.4269 93.0367 92.5753 93.1346 92.7003 93.2586C92.8254 93.3825 92.9246 93.53 92.9923 93.6925C93.06 93.855 93.0949 94.0294 93.0949 94.2054Z" fill="#FF6B35"/>
<path d="M83.611 92.3812C82.2944 93.5776 80.4625 95.118 79.4478 96.5792C72.911 90.1009 70.502 87.0254 72.8876 84.7218C75.2731 82.4181 80.1964 87.7855 83.611 92.3812Z" fill="#FF6B35"/>
<path d="M77.1793 99.3975C75.9469 100.801 74.1517 103.126 73.0861 104.66C64.0819 97.772 62.6203 95.4216 64.8304 92.9776C66.4676 91.2469 70.0344 92.159 77.1793 99.3975Z" fill="#FF6B35"/>
<path d="M173.396 94.2171C165.608 59.0421 139.917 33.2689 103.584 25.9252C108.893 34.8826 115.278 45.22 115.278 45.22C115.278 45.22 104.227 56.9138 101.093 60.3401C116.47 66.187 127.79 81.1551 127.778 98.2398C127.778 111.992 120.259 124.528 109.232 131.871C109.203 131.968 109.146 132.053 109.068 132.117C106.262 134.362 79.3777 141.986 58.8901 127.007C58.8208 126.946 58.7752 126.863 58.7615 126.773C54.9689 123.045 51.9711 118.588 49.9492 113.67C47.9273 108.752 46.9232 103.475 46.9975 98.1579C46.9975 71.765 70.2916 58.6328 70.2916 58.6328L70.467 71.7182C70.467 71.7182 95.293 48.6346 101.678 42.8812C100.906 41.934 70.467 0 70.467 0L70.2799 21.3295C70.2799 21.3295 0 36.2742 0 110.097C0 127.428 6.01063 143.471 14.2197 158.241C15.1966 157.911 16.2434 157.846 17.2538 158.051C18.2642 158.256 19.2023 158.725 19.9731 159.41C31.9007 169.479 46.7168 164.497 60.0361 160.428C73.3553 156.358 87.5399 152.359 101.058 158.171C108.355 161.316 114.845 166.251 123.031 166.731C130.164 167.14 137.262 165.386 144.36 164.859C148.494 164.496 152.658 164.713 156.732 165.503C159.851 159.593 162.809 153.579 165.608 147.459C173.209 130.561 177.536 112.939 173.396 94.2171Z" fill="#1A659E"/>
</svg>
